<svg width="24" height="24" viewBox="0 0 24 24" fill="none" xmlns="http://www.w3.org/2000/svg">
<path d="M10.7368 18.7368C10.7368 19.0719 10.8699 19.3931 11.1068 19.63C11.3437 19.8669 11.665 20 12 20C12.335 20 12.6563 19.8669 12.8932 19.63C13.1301 19.3931 13.2632 19.0719 13.2632 18.7368V13.2632H18.7368C19.0719 13.2632 19.3931 13.1301 19.63 12.8932C19.8669 12.6563 20 12.335 20 12C20 11.665 19.8669 11.3437 19.63 11.1068C19.3931 10.8699 19.0719 10.7368 18.7368 10.7368H13.2632V5.26316C13.2632 4.92815 13.1301 4.60686 12.8932 4.36997C12.6563 4.13308 12.335 4 12 4C11.665 4 11.3437 4.13308 11.1068 4.36997C10.8699 4.60686 10.7368 4.92815 10.7368 5.26316V10.7368H5.26316C4.92815 10.7368 4.60686 10.8699 4.36997 11.1068C4.13308 11.3437 4 11.665 4 12C4 12.335 4.13308 12.6563 4.36997 12.8932C4.60686 13.1301 4.92815 13.2632 5.26316 13.2632H10.7368V18.7368Z" fill="white"/>
</svg>
