<svg width="24" height="24" viewBox="0 0 24 24" fill="none" xmlns="http://www.w3.org/2000/svg">
<path fill-rule="evenodd" clip-rule="evenodd" d="M22.5009 11.9994C22.5009 11.8004 22.4218 11.6097 22.2812 11.469C22.1405 11.3284 21.9498 11.2494 21.7509 11.2494L4.06135 11.2494L8.78185 6.53036C8.92268 6.38953 9.0018 6.19852 9.0018 5.99936C9.0018 5.80019 8.92268 5.60919 8.78185 5.46836C8.64102 5.32753 8.45002 5.24841 8.25085 5.24841C8.05169 5.24841 7.86068 5.32753 7.71985 5.46836L1.71985 11.4684C1.65001 11.538 1.59459 11.6208 1.55678 11.7119C1.51897 11.803 1.49951 11.9007 1.49951 11.9994C1.49951 12.098 1.51897 12.1957 1.55678 12.2868C1.59459 12.3779 1.65001 12.4607 1.71985 12.5304L7.71985 18.5304C7.78958 18.6001 7.87237 18.6554 7.96348 18.6931C8.05459 18.7309 8.15224 18.7503 8.25085 18.7503C8.45002 18.7503 8.64102 18.6712 8.78185 18.5304C8.92268 18.3895 9.0018 18.1985 9.0018 17.9994C9.0018 17.8002 8.92268 17.6092 8.78185 17.4684L4.06135 12.7494L21.7509 12.7494C21.9498 12.7494 22.1405 12.6703 22.2812 12.5297C22.4218 12.389 22.5009 12.1983 22.5009 11.9994Z" fill="#3071FF"/>
</svg>
