<svg width="22" height="14" viewBox="0 0 22 14" fill="none" xmlns="http://www.w3.org/2000/svg">
<path fill-rule="evenodd" clip-rule="evenodd" d="M0.499391 6.99934C0.499391 7.19826 0.578409 7.38902 0.719061 7.52967C0.859714 7.67033 1.05048 7.74934 1.24939 7.74934L18.9389 7.74934L14.2184 12.4683C14.0776 12.6092 13.9984 12.8002 13.9984 12.9993C13.9984 13.1985 14.0776 13.3895 14.2184 13.5303C14.3592 13.6712 14.5502 13.7503 14.7494 13.7503C14.9486 13.7503 15.1396 13.6712 15.2804 13.5303L21.2804 7.53034C21.3502 7.46068 21.4057 7.37791 21.4435 7.28679C21.4813 7.19568 21.5007 7.098 21.5007 6.99934C21.5007 6.90069 21.4813 6.80301 21.4435 6.71189C21.4057 6.62078 21.3502 6.53801 21.2804 6.46834L15.2804 0.468345C15.2107 0.398613 15.1279 0.343299 15.0368 0.30556C14.9457 0.267821 14.848 0.248398 14.7494 0.248398C14.5502 0.248398 14.3592 0.327515 14.2184 0.468345C14.0776 0.609175 13.9984 0.800181 13.9984 0.999345C13.9984 1.19851 14.0776 1.38952 14.2184 1.53035L18.9389 6.24934L1.24939 6.24934C1.05048 6.24934 0.859714 6.32836 0.719061 6.46901C0.578409 6.60967 0.499391 6.80043 0.499391 6.99934Z" fill="#3071FF"/>
</svg>
