<svg width="24" height="24" viewBox="0 0 24 24" fill="none" xmlns="http://www.w3.org/2000/svg">
<path fill-rule="evenodd" clip-rule="evenodd" d="M1.49939 11.9993C1.49939 12.1982 1.57841 12.389 1.71906 12.5297C1.85971 12.6703 2.05048 12.7493 2.24939 12.7493L19.9389 12.7493L15.2184 17.4683C15.0776 17.6092 14.9984 17.8002 14.9984 17.9993C14.9984 18.1985 15.0776 18.3895 15.2184 18.5303C15.3592 18.6712 15.5502 18.7503 15.7494 18.7503C15.9486 18.7503 16.1396 18.6712 16.2804 18.5303L22.2804 12.5303C22.3502 12.4607 22.4057 12.3779 22.4435 12.2868C22.4813 12.1957 22.5007 12.098 22.5007 11.9993C22.5007 11.9007 22.4813 11.803 22.4435 11.7119C22.4057 11.6208 22.3502 11.538 22.2804 11.4683L16.2804 5.46833C16.2107 5.3986 16.1279 5.34328 16.0368 5.30554C15.9457 5.26781 15.848 5.24838 15.7494 5.24838C15.5502 5.24838 15.3592 5.3275 15.2184 5.46833C15.0776 5.60916 14.9984 5.80017 14.9984 5.99933C14.9984 6.19849 15.0776 6.3895 15.2184 6.53033L19.9389 11.2493L2.24939 11.2493C2.05048 11.2493 1.85971 11.3283 1.71906 11.469C1.57841 11.6097 1.49939 11.8004 1.49939 11.9993Z" fill="white"/>
</svg>
