<svg width="24" height="24" viewBox="0 0 24 24" fill="none" xmlns="http://www.w3.org/2000/svg">
<path d="M7.425 9.475L11.15 3.4C11.25 3.23333 11.375 3.11233 11.525 3.037C11.675 2.96166 11.8333 2.92433 12 2.925C12.1667 2.92566 12.325 2.96333 12.475 3.038C12.625 3.11266 12.75 3.23333 12.85 3.4L16.575 9.475C16.675 9.64166 16.725 9.81666 16.725 10C16.725 10.1833 16.6833 10.35 16.6 10.5C16.5167 10.65 16.4 10.771 16.25 10.863C16.1 10.955 15.925 11.0007 15.725 11H8.275C8.075 11 7.9 10.9543 7.75 10.863C7.6 10.7717 7.48333 10.6507 7.4 10.5C7.31667 10.3493 7.275 10.1827 7.275 10C7.275 9.81733 7.325 9.64233 7.425 9.475ZM17.5 22C16.25 22 15.1877 21.5627 14.313 20.688C13.4383 19.8133 13.0007 18.7507 13 17.5C12.9993 16.2493 13.437 15.187 14.313 14.313C15.189 13.439 16.2513 13.0013 17.5 13C18.7487 12.9987 19.8113 13.4363 20.688 14.313C21.5647 15.1897 22.002 16.252 22 17.5C21.998 18.748 21.5607 19.8107 20.688 20.688C19.8153 21.5653 18.7527 22.0027 17.5 22ZM3 20.5V14.5C3 14.2167 3.096 13.9793 3.288 13.788C3.48 13.5967 3.71733 13.5007 4 13.5H10C10.2833 13.5 10.521 13.596 10.713 13.788C10.905 13.98 11.0007 14.2173 11 14.5V20.5C11 20.7833 10.904 21.021 10.712 21.213C10.52 21.405 10.2827 21.5007 10 21.5H4C3.71667 21.5 3.47933 21.404 3.288 21.212C3.09667 21.02 3.00067 20.7827 3 20.5ZM17.5 20C18.2 20 18.7917 19.7583 19.275 19.275C19.7583 18.7917 20 18.2 20 17.5C20 16.8 19.7583 16.2083 19.275 15.725C18.7917 15.2417 18.2 15 17.5 15C16.8 15 16.2083 15.2417 15.725 15.725C15.2417 16.2083 15 16.8 15 17.5C15 18.2 15.2417 18.7917 15.725 19.275C16.2083 19.7583 16.8 20 17.5 20ZM5 19.5H9V15.5H5V19.5ZM10.05 9H13.95L12 5.85L10.05 9Z" fill="white"/>
</svg>
