<svg width="24" height="24" viewBox="0 0 24 24" fill="none" xmlns="http://www.w3.org/2000/svg">
<path d="M12.0012 20C13.7762 19.9997 15.5008 19.4091 16.9033 18.3212C18.3058 17.2333 19.3067 15.7098 19.7484 13.9906C20.1901 12.2713 20.0474 10.4541 19.3429 8.82484C18.6384 7.1956 17.4121 5.84693 15.8569 4.99116C14.3018 4.13538 12.5063 3.82111 10.7529 4.09781C8.99959 4.37451 7.38807 5.22647 6.17208 6.51957C4.95608 7.81266 4.20467 9.47345 4.03615 11.2405C3.86762 13.0075 4.29155 14.7804 5.24119 16.28L4.00119 20L7.72119 18.76C9.00081 19.5721 10.4856 20.0023 12.0012 20Z" stroke="white" stroke-width="1.5" stroke-linecap="round" stroke-linejoin="round"/>
</svg>
