<svg width="24" height="24" viewBox="0 0 24 24" fill="none" xmlns="http://www.w3.org/2000/svg">
<path d="M11.5 2C13.1254 2 14.7237 2.41706 16.1419 3.21129C17.5601 4.00552 18.7508 5.15034 19.6001 6.53626C20.4494 7.92218 20.9289 9.50284 20.9927 11.127C21.0565 12.7512 20.7025 14.3646 19.9646 15.8129C19.2266 17.2612 18.1294 18.4959 16.7779 19.399C15.4264 20.302 13.8658 20.8432 12.2454 20.9707C10.6249 21.0982 8.99887 20.8079 7.52273 20.1274C6.0466 19.4469 4.76975 18.399 3.81434 17.084L5.50519 15.8555C6.25041 16.8812 7.24635 17.6985 8.39773 18.2293C9.54912 18.7601 10.8174 18.9866 12.0814 18.8872C13.3453 18.7877 14.5626 18.3656 15.6168 17.6612C16.671 16.9568 17.5268 15.9937 18.1024 14.8641C18.6779 13.7344 18.9541 12.476 18.9043 11.2091C18.8545 9.94221 18.4805 8.7093 17.8181 7.62829C17.1556 6.54727 16.2269 5.6543 15.1207 5.0348C14.0145 4.41531 12.7678 4.09 11.5 4.09V2Z" fill="#3071FF"/>
</svg>
