<svg width="24" height="24" viewBox="0 0 24 24" fill="none" xmlns="http://www.w3.org/2000/svg">
<path d="M6.66649 22.7678H17.3336C19.4131 22.7678 20.4476 21.7131 20.4476 19.6238V10.5034C20.4476 9.2074 20.3071 8.64512 19.5035 7.8214L13.9586 2.18655C13.1958 1.40269 12.5726 1.23212 11.4378 1.23212H6.66649C4.59735 1.23212 3.55249 2.29669 3.55249 4.3864V19.6238C3.55249 21.723 4.59735 22.7678 6.66649 22.7678ZM6.74663 21.1508C5.71206 21.1508 5.16949 20.598 5.16949 19.5938V4.4164C5.16949 3.42212 5.71206 2.84912 6.75692 2.84912H11.2166V8.6854C11.2166 9.95097 11.8595 10.5737 13.1049 10.5737H18.8306V19.5938C18.8306 20.598 18.2979 21.1508 17.2535 21.1508H6.74663ZM13.2858 9.05655C12.8941 9.05655 12.7329 8.89626 12.7329 8.49426V3.16069L18.5186 9.05697L13.2858 9.05655ZM15.6965 13.3358H8.0722C7.71092 13.3358 7.44992 13.6071 7.44992 13.9487C7.44992 14.3001 7.71135 14.5714 8.07263 14.5714H15.6965C15.7786 14.5727 15.8602 14.5575 15.9364 14.5267C16.0125 14.4959 16.0817 14.4501 16.1398 14.392C16.1979 14.3339 16.2437 14.2647 16.2745 14.1886C16.3053 14.1124 16.3205 14.0308 16.3192 13.9487C16.3192 13.6071 16.0479 13.3358 15.6965 13.3358ZM15.6965 16.8415H8.0722C7.71092 16.8415 7.44992 17.1227 7.44992 17.4741C7.44992 17.8157 7.71135 18.0771 8.07263 18.0771H15.6965C16.0479 18.0771 16.3192 17.8157 16.3192 17.4741C16.3192 17.1227 16.0479 16.8415 15.6965 16.8415Z" fill="white"/>
</svg>
