<svg width="24" height="24" viewBox="0 0 24 24" fill="none" xmlns="http://www.w3.org/2000/svg">
<path d="M12 16.5C9.525 16.5 7.5 14.475 7.5 12C7.5 9.525 9.525 7.5 12 7.5C14.475 7.5 16.5 9.525 16.5 12C16.5 14.475 14.475 16.5 12 16.5ZM12 9C10.35 9 9 10.35 9 12C9 13.65 10.35 15 12 15C13.65 15 15 13.65 15 12C15 10.35 13.65 9 12 9Z" fill="white"/>
<path d="M11.9999 19.5C7.21494 19.5 3.01494 16.59 1.54494 12.24C1.48469 12.0857 1.48469 11.9143 1.54494 11.76C3.01494 7.425 7.22994 4.5 11.9999 4.5C16.7699 4.5 20.9849 7.41 22.4549 11.76C22.5149 11.91 22.5149 12.09 22.4549 12.24C20.9849 16.575 16.7699 19.5 11.9999 19.5ZM3.04494 12C4.37994 15.6 7.94994 18 11.9999 18C16.0499 18 19.6049 15.6 20.9549 12C19.6199 8.4 16.0499 6 11.9999 6C7.94994 6 4.39494 8.4 3.04494 12Z" fill="white"/>
<path d="M21 21.75C20.9016 21.7512 20.8041 21.7318 20.7137 21.693C20.6233 21.6543 20.542 21.597 20.475 21.525L2.475 3.52499C2.175 3.22499 2.175 2.75999 2.475 2.45999C2.775 2.15999 3.24 2.15999 3.54 2.45999L21.525 20.475C21.825 20.775 21.825 21.24 21.525 21.54C21.375 21.69 21.18 21.765 21 21.765V21.75Z" fill="white"/>
</svg>
