<svg width="24" height="24" viewBox="0 0 24 24" fill="none" xmlns="http://www.w3.org/2000/svg">
<path d="M21.7502 12.2312C21.7502 11.5098 21.6854 10.8162 21.5652 10.1503H11.9836V14.0902H17.4588C17.2184 15.3572 16.497 16.4301 15.4149 17.1515V19.7133H18.7166C20.6403 17.9376 21.7502 15.3295 21.7502 12.2312Z" fill="#4285F4"/>
<path d="M11.9835 22.1735C14.7303 22.1735 17.0332 21.2671 18.7165 19.7133L15.4147 17.1515C14.5084 17.7619 13.3523 18.1318 11.9835 18.1318C9.3384 18.1318 7.09099 16.3468 6.28636 13.9422H2.90137V16.5688C4.57537 19.8891 8.0066 22.1735 11.9835 22.1735Z" fill="#34A853"/>
<path d="M6.28639 13.933C6.08292 13.3225 5.96268 12.6751 5.96268 12C5.96268 11.3248 6.08292 10.6774 6.28639 10.067V7.44043H2.90139C2.20775 8.80922 1.81006 10.3537 1.81006 12C1.81006 13.6462 2.20775 15.1908 2.90139 16.5596L5.53725 14.5064L6.28639 13.933Z" fill="#FBBC05"/>
<path d="M11.9835 5.87743C13.4818 5.87743 14.8136 6.39535 15.8772 7.3942L18.7905 4.48089C17.024 2.83464 14.7303 1.82654 11.9835 1.82654C8.0066 1.82654 4.57537 4.11095 2.90137 7.44044L6.28636 10.067C7.09099 7.66241 9.3384 5.87743 11.9835 5.87743Z" fill="#EA4335"/>
</svg>
