<svg width="24" height="24" viewBox="0 0 24 24" fill="none" xmlns="http://www.w3.org/2000/svg">
<path d="M12.1999 19.0684C12.0363 19.2305 11.7454 19.2575 11.5545 19.0684C11.4694 18.9834 11.4216 18.8685 11.4216 18.7487C11.4216 18.629 11.4694 18.5141 11.5545 18.4291L14.6358 15.3764L13.3542 14.1067L10.2729 17.1594C10.1002 17.3395 9.80936 17.3305 9.62757 17.1594C9.54243 17.0744 9.49465 16.9595 9.49465 16.8397C9.49465 16.7199 9.54243 16.605 9.62757 16.52L12.7089 13.4673L11.4273 12.1977L8.34597 15.2503C8.18236 15.4124 7.8915 15.4394 7.70062 15.2503C7.61741 15.1643 7.57095 15.0498 7.57095 14.9307C7.57095 14.8115 7.61741 14.697 7.70062 14.611L10.7819 11.5583L9.49123 10.2886L6.40993 13.3413C6.24632 13.5034 5.95546 13.5304 5.76459 13.3413C5.68137 13.2553 5.63491 13.1407 5.63491 13.0216C5.63491 12.9025 5.68137 12.7879 5.76459 12.7019L9.74573 8.75776L11.4454 10.4327C12.3089 11.2882 13.7996 11.2791 14.6631 10.4327C15.5538 9.5502 15.5538 8.12742 14.6631 7.24493L12.9725 5.57001L13.227 5.31787C13.9359 4.61549 15.0903 4.61549 15.7993 5.31787L19.6532 9.13597C20.3621 9.83835 20.3621 10.982 19.6532 11.6844L12.1999 19.0684ZM20.9348 12.9631C21.6152 12.2863 21.9973 11.3699 21.9973 10.4147C21.9973 9.4594 21.6152 8.54306 20.9348 7.86627L17.0809 4.04817C16.3977 3.37401 15.4728 2.99548 14.5086 2.99548C13.5443 2.99548 12.6194 3.37401 11.9363 4.04817L11.6818 4.30031L11.4273 4.04817C10.7441 3.37401 9.8192 2.99548 8.85498 2.99548C7.89075 2.99548 6.96581 3.37401 6.28268 4.04817L3.06504 7.23593C2.44981 7.84284 2.07476 8.64828 2.00804 9.50588C1.94133 10.3635 2.18737 11.2163 2.70147 11.9095L4.01943 10.6038C3.84372 10.2639 3.78161 9.87748 3.84206 9.50034C3.90251 9.1232 4.0824 8.77486 4.35573 8.50562L7.57337 5.31787C8.28234 4.61549 9.43669 4.61549 10.1457 5.31787L13.3815 8.52363C13.5451 8.68572 13.5724 8.97388 13.3815 9.16298C13.1906 9.35209 12.8997 9.32507 12.7361 9.16298L9.74573 6.20936L4.4739 11.4232C3.58314 12.2967 3.58314 13.7285 4.4739 14.611C4.82838 14.9622 5.28285 15.1783 5.76459 15.2413C5.82853 15.7254 6.05212 16.175 6.40059 16.5203C6.74906 16.8655 7.20289 17.087 7.69154 17.1504C7.75548 17.6345 7.97907 18.0841 8.32754 18.4293C8.67601 18.7746 9.12984 18.9961 9.61848 19.0594C9.68211 19.5457 9.90025 19.9869 10.2547 20.3381C10.6819 20.7614 11.2546 20.9955 11.8636 20.9955C12.4725 20.9955 13.0452 20.7614 13.4724 20.3381L20.9348 12.9631Z" fill="white"/>
</svg>
