<svg width="24" height="24" viewBox="0 0 24 24" fill="none" xmlns="http://www.w3.org/2000/svg">
<path d="M21.8689 10.7654L19.8749 6.70344C19.8015 6.55393 19.6998 6.42062 19.5757 6.31112C19.4517 6.20162 19.3076 6.11808 19.1519 6.06526C18.9961 6.01244 18.8316 5.99138 18.6678 6.00328C18.5041 6.01518 18.3442 6.05982 18.1974 6.13463L16.2542 7.12348L12.1607 6.02087C12.0557 5.99304 11.9454 5.99304 11.8404 6.02087L7.74691 7.12348L5.80371 6.13463C5.65689 6.05982 5.49702 6.01518 5.33325 6.00328C5.16948 5.99138 5.005 6.01244 4.84923 6.06526C4.69345 6.11808 4.54942 6.20162 4.42535 6.31112C4.30129 6.42062 4.19963 6.55393 4.12617 6.70344L2.13218 10.7646C2.0587 10.9141 2.01487 11.0769 2.00317 11.2437C1.99148 11.4104 2.01217 11.5779 2.06404 11.7365C2.11592 11.8951 2.19798 12.0417 2.30552 12.168C2.41307 12.2944 2.544 12.3979 2.69084 12.4727L4.80047 13.5474L9.13614 16.7001C9.20007 16.7463 9.27187 16.7801 9.34789 16.7996L14.3485 18.0724C14.4532 18.0992 14.5629 18.0978 14.667 18.0685C14.7711 18.0393 14.8659 17.983 14.9423 17.9054L19.2452 13.5236L21.3095 12.4727C21.6058 12.3216 21.8311 12.0569 21.9359 11.7368C22.0407 11.4167 22.0163 11.0673 21.8681 10.7654H21.8689ZM17.5801 13.4201L14.8915 11.2276C14.7711 11.1294 14.6192 11.0801 14.4651 11.089C14.3111 11.098 14.1657 11.1646 14.057 11.2762C12.6655 12.7034 11.1145 12.5228 10.1253 11.8863L13.5039 8.5451H15.9893L18.1153 12.8736L17.5801 13.4201ZM5.24427 7.27225L6.84368 8.08528L4.84579 12.1465L3.2495 11.3342L5.24427 7.27225ZM14.3079 16.7494L9.76747 15.5943L5.92326 12.7988L8.11102 8.34383L12.0005 7.29452L12.7663 7.50057L9.25022 10.9755L9.24397 10.9826C9.11161 11.1174 9.01067 11.2807 8.94858 11.4605C8.8865 11.6403 8.86485 11.8319 8.88525 12.0214C8.90565 12.2108 8.96757 12.3932 9.06644 12.555C9.16531 12.7168 9.29861 12.854 9.45649 12.9563C11.0629 14.0009 13.0014 13.8314 14.5282 12.5586L16.6886 14.3255L14.3079 16.7494ZM19.1522 12.1457L17.1582 8.08847L18.7568 7.27225L20.7516 11.3342L19.1522 12.1457ZM12.2959 19.5179C12.2621 19.6555 12.1842 19.7776 12.0745 19.8649C11.9648 19.9523 11.8296 19.9998 11.6904 20C11.639 20 11.5878 19.9936 11.538 19.9809L8.28214 19.152C8.20599 19.1328 8.13413 19.0991 8.07039 19.0525L6.01155 17.5553C5.88496 17.4541 5.80159 17.3071 5.77879 17.1449C5.756 16.9827 5.79554 16.8177 5.88919 16.6845C5.98283 16.5512 6.12336 16.4598 6.28151 16.4294C6.43967 16.399 6.60325 16.4318 6.7382 16.5211L8.70015 17.9483L11.8443 18.747C12.0051 18.788 12.1433 18.8923 12.2286 19.037C12.3139 19.1817 12.3392 19.355 12.299 19.5187L12.2959 19.5179Z" fill="white"/>
</svg>
