<svg width="16" height="16" viewBox="0 0 16 16" fill="none" xmlns="http://www.w3.org/2000/svg">
<path d="M13.333 2.66667H2.66634C1.93301 2.66667 1.33301 3.26667 1.33301 4V12C1.33301 12.7333 1.93301 13.3333 2.66634 13.3333H13.333C14.0663 13.3333 14.6663 12.7333 14.6663 12V4C14.6663 3.26667 14.0663 2.66667 13.333 2.66667ZM13.333 12H2.66634V4H13.333V12ZM2.66634 0H13.333V1.33333H2.66634V0ZM2.66634 14.6667H13.333V16H2.66634V14.6667ZM7.99967 8C8.4417 8 8.86563 7.82441 9.17819 7.51184C9.49075 7.19928 9.66634 6.77536 9.66634 6.33333C9.66634 5.89131 9.49075 5.46738 9.17819 5.15482C8.86563 4.84226 8.4417 4.66667 7.99967 4.66667C7.55765 4.66667 7.13372 4.84226 6.82116 5.15482C6.5086 5.46738 6.33301 5.89131 6.33301 6.33333C6.33301 6.77536 6.5086 7.19928 6.82116 7.51184C7.13372 7.82441 7.55765 8 7.99967 8ZM7.99967 5.66667C8.36634 5.66667 8.66634 5.96667 8.66634 6.33333C8.66634 6.7 8.36634 7 7.99967 7C7.63301 7 7.33301 6.7 7.33301 6.33333C7.33301 5.96667 7.63301 5.66667 7.99967 5.66667ZM11.333 10.66C11.333 9.26667 9.12634 8.66667 7.99967 8.66667C6.87301 8.66667 4.66634 9.26667 4.66634 10.66V11.3333H11.333V10.66ZM5.87301 10.3333C6.27968 9.98667 7.22634 9.66667 7.99967 9.66667C8.77967 9.66667 9.72634 9.98667 10.133 10.3333H5.87301Z" fill="white"/>
</svg>
