<svg width="32" height="32" viewBox="0 0 32 32" fill="none" xmlns="http://www.w3.org/2000/svg">
<circle cx="16" cy="16" r="16" fill="url(#paint0_linear_116_1521)"/>
<path fill-rule="evenodd" clip-rule="evenodd" d="M18.819 9.02557H13.181C10.8897 9.02557 9.02563 10.8897 9.02563 13.181V18.8189C9.02563 21.1102 10.8897 22.9743 13.181 22.9743H18.819C21.1103 22.9743 22.9744 21.1102 22.9744 18.8189V13.181C22.9743 10.8897 21.1102 9.02557 18.819 9.02557ZM21.5711 18.8188C21.5711 20.3388 20.3389 21.571 18.819 21.571H13.181C11.6611 21.571 10.4289 20.3388 10.4289 18.8188V13.1809C10.4289 11.6609 11.6611 10.4287 13.181 10.4287H18.819C20.3389 10.4287 21.5711 11.6609 21.5711 13.1809V18.8188ZM12.3924 15.9999C12.3924 14.0107 14.0108 12.3923 16 12.3923C17.9893 12.3923 19.6077 14.0107 19.6077 15.9999C19.6077 17.9892 17.9893 19.6076 16 19.6076C14.0108 19.6076 12.3924 17.9892 12.3924 15.9999ZM16 18.2044C14.7825 18.2044 13.7956 17.2175 13.7956 16C13.7956 14.7826 14.7826 13.7956 16 13.7956C17.2175 13.7956 18.2044 14.7826 18.2044 16C18.2044 17.2175 17.2174 18.2044 16 18.2044ZM19.6146 13.2838C20.092 13.2838 20.4791 12.8967 20.4791 12.4193C20.4791 11.9419 20.092 11.5548 19.6146 11.5548C19.1372 11.5548 18.7502 11.9419 18.7502 12.4193C18.7502 12.8967 19.1372 13.2838 19.6146 13.2838Z" fill="white"/>
<defs>
<linearGradient id="paint0_linear_116_1521" x1="0.106913" y1="-0.0534563" x2="4.99603e-07" y2="31.9465" gradientUnits="userSpaceOnUse">
<stop stop-color="#A24FFF"/>
<stop offset="0.415461" stop-color="#E82B92"/>
<stop offset="0.702206" stop-color="#EF292A"/>
<stop offset="1" stop-color="#FF9300"/>
</linearGradient>
</defs>
</svg>
