<svg width="48" height="48" viewBox="0 0 48 48" fill="none" xmlns="http://www.w3.org/2000/svg">
<g filter="url(#filter0_d_116_1521)">
<circle cx="24" cy="20" r="16" fill="url(#paint0_linear_116_1521)"/>
</g>
<path fill-rule="evenodd" clip-rule="evenodd" d="M26.819 13.0256H21.181C18.8897 13.0256 17.0256 14.8897 17.0256 17.181V22.8189C17.0256 25.1102 18.8897 26.9743 21.181 26.9743H26.819C29.1103 26.9743 30.9744 25.1102 30.9744 22.8189V17.181C30.9743 14.8897 29.1102 13.0256 26.819 13.0256ZM29.5711 22.8188C29.5711 24.3388 28.3389 25.571 26.819 25.571H21.181C19.6611 25.571 18.4289 24.3388 18.4289 22.8188V17.1809C18.4289 15.6609 19.6611 14.4287 21.181 14.4287H26.819C28.3389 14.4287 29.5711 15.6609 29.5711 17.1809V22.8188ZM20.3924 19.9999C20.3924 18.0107 22.0108 16.3923 24 16.3923C25.9893 16.3923 27.6077 18.0107 27.6077 19.9999C27.6077 21.9892 25.9893 23.6076 24 23.6076C22.0108 23.6076 20.3924 21.9892 20.3924 19.9999ZM24 22.2044C22.7825 22.2044 21.7956 21.2175 21.7956 20C21.7956 18.7826 22.7826 17.7956 24 17.7956C25.2175 17.7956 26.2044 18.7826 26.2044 20C26.2044 21.2175 25.2174 22.2044 24 22.2044ZM27.6146 17.2838C28.092 17.2838 28.4791 16.8967 28.4791 16.4193C28.4791 15.9419 28.092 15.5548 27.6146 15.5548C27.1372 15.5548 26.7502 15.9419 26.7502 16.4193C26.7502 16.8967 27.1372 17.2838 27.6146 17.2838Z" fill="white"/>
<defs>
<filter id="filter0_d_116_1521" x="0" y="0" width="48" height="48" filterUnits="userSpaceOnUse" color-interpolation-filters="sRGB">
<feFlood flood-opacity="0" result="BackgroundImageFix"/>
<feColorMatrix in="SourceAlpha" type="matrix" values="0 0 0 0 0 0 0 0 0 0 0 0 0 0 0 0 0 0 127 0" result="hardAlpha"/>
<feOffset dy="4"/>
<feGaussianBlur stdDeviation="4"/>
<feColorMatrix type="matrix" values="0 0 0 0 0.196078 0 0 0 0 0.196078 0 0 0 0 0.196078 0 0 0 0.1 0"/>
<feBlend mode="normal" in2="BackgroundImageFix" result="effect1_dropShadow_116_1521"/>
<feBlend mode="normal" in="SourceGraphic" in2="effect1_dropShadow_116_1521" result="shape"/>
</filter>
<linearGradient id="paint0_linear_116_1521" x1="8.10691" y1="3.94654" x2="8" y2="35.9465" gradientUnits="userSpaceOnUse">
<stop stop-color="#A24FFF"/>
<stop offset="0.415461" stop-color="#E82B92"/>
<stop offset="0.702206" stop-color="#EF292A"/>
<stop offset="1" stop-color="#FF9300"/>
</linearGradient>
</defs>
</svg>
