<svg width="58" height="56" viewBox="0 0 58 56" fill="none" xmlns="http://www.w3.org/2000/svg">
<path d="M45.9343 56H12.0657C5.36253 56 0 50.6033 0 44.015V11.985C0 5.32666 5.43309 0 12.0657 0H45.9343C52.6375 0 58 5.39675 58 11.985V44.015C58 50.6033 52.6375 56 45.9343 56Z" fill="#36576C"/>
<path d="M2.3285 48.2203C2.18738 48.01 2.11682 47.7997 2.04626 47.5895L2.3285 48.2203Z" fill="#D4D8D3"/>
<path d="M1.27002 35.8849H1.90506C1.69338 36.025 1.4817 36.1652 1.27002 36.3054V35.8849Z" fill="#D4D8D3"/>
<path d="M45.2993 13.8073C41.2069 15.4193 35.9149 16.5407 29 16.5407C21.3796 16.5407 15.382 17.6621 10.6545 19.204C12.4185 10.7935 19.9684 4.48561 29 4.48561C35.9854 4.48561 42.0536 8.20025 45.2993 13.8073Z" fill="#1655A2"/>
<path d="M1.90506 35.8849C1.69338 36.025 1.4817 36.1652 1.27002 36.3054V35.8849H1.90506Z" fill="#101A23"/>
<path d="M47.6982 23.0588C47.6982 23.97 47.6277 24.8811 47.4866 25.7922C43.0413 27.6846 37.0437 28.9462 28.9294 28.9462C22.0851 28.9462 16.5109 29.8573 12.0656 31.189C7.69094 32.4506 4.37464 34.2028 1.8345 35.9549H1.27002V33.7121C3.66905 31.9599 6.91479 30.2078 11.1484 28.806C15.8053 27.3342 21.6617 26.2829 28.9999 26.2829C37.326 26.2829 43.3235 24.6708 47.6982 22.428C47.6982 22.5682 47.6982 22.8486 47.6982 23.0588Z" fill="#101A23"/>
<path d="M47.6982 22.3579C43.3941 24.6708 37.326 26.2128 28.9999 26.2128C21.6617 26.2128 15.8053 27.2641 11.1484 28.7359C6.91479 30.1377 3.66905 31.8899 1.27002 33.6421V23.97C3.59849 22.2879 6.70311 20.6058 10.6544 19.2741C15.3819 17.6621 21.3795 16.6108 28.9999 16.6108C35.8442 16.6108 41.1362 15.4894 45.2992 13.8773C46.7104 16.3304 47.6277 19.2741 47.6982 22.3579Z" fill="#3AC6F4"/>
<path d="M54.6131 35.8849C50.1679 39.8098 42.4063 43.3842 29 43.3842C22.2263 43.3842 16.6521 44.2954 12.2068 45.5569C9.5961 46.3279 7.40875 47.2391 5.50364 48.2203C4.65693 48.6408 3.81021 49.1314 3.10461 49.622C5.08028 52.7059 8.5377 54.7384 12.5596 54.7384H45.5815C50.0973 54.7384 54.0487 52.0751 55.8126 48.2203C56.1654 47.3792 56.4477 46.4681 56.6594 45.5569C56.8005 44.9262 56.8005 44.2954 56.8005 43.5945V35.8849V33.7822C56.0949 34.4831 55.4599 35.184 54.6131 35.8849Z" fill="url(#paint0_linear_207_9144)"/>
<path d="M49.3918 35.8849C44.9465 38.6183 38.3845 40.7209 29 40.7209C18.275 40.7209 10.7251 42.8936 5.43313 45.627C4.16306 46.2578 3.0341 46.9587 1.97571 47.6596L2.25795 48.2904C2.46963 48.781 2.75186 49.2015 3.0341 49.6921C3.81026 49.2015 4.58641 48.781 5.43313 48.2904C7.33824 47.3091 9.59615 46.398 12.1363 45.627C16.5815 44.2954 22.1558 43.4543 28.9295 43.4543C42.3358 43.4543 50.0974 39.9499 54.5426 35.9549C55.3188 35.2541 56.0244 34.5532 56.6594 33.8523V28.7359C55.2482 31.0488 52.9903 33.7121 49.3918 35.8849Z" fill="#101A23"/>
<path d="M55.1776 6.72841C53.2725 3.43429 49.6034 1.26158 45.5109 1.26158H12.489C6.27975 1.26158 1.27002 6.2378 1.27002 12.4055V24.04C3.59849 22.3579 6.70311 20.6758 10.6544 19.3442C12.4184 10.7935 19.9683 4.48561 28.9999 4.48561C35.9148 4.48561 42.0535 8.27034 45.2992 13.8773C46.781 16.4005 47.6277 19.3442 47.7688 22.428C47.7688 22.6383 47.7688 22.8486 47.7688 23.1289C47.7688 24.04 47.6982 24.9512 47.5571 25.8623C46.5693 32.4506 42.124 37.8473 36.197 40.3004C41.9124 39.5294 46.1459 37.9174 49.3917 35.9549C52.9902 33.7822 55.3187 31.1189 56.7299 28.7359V19.2741V14.1577V12.2653C56.7299 10.3029 56.1654 8.34043 55.1776 6.72841Z" fill="url(#paint1_linear_207_9144)"/>
<path d="M47.5571 25.7922C46.5693 32.3805 42.124 37.7772 36.197 40.2303C34.0097 40.5106 31.6106 40.6508 29.0705 40.6508C27.1654 40.6508 25.4014 40.7209 23.708 40.8611C15.7347 41.4919 9.87829 43.3141 5.50359 45.5569C4.23352 46.1877 3.10457 46.8886 2.04617 47.5895C1.76393 46.9587 1.62281 46.2578 1.4817 45.5569C1.34058 44.9262 1.34058 44.2954 1.34058 43.5945V36.3755C1.55226 36.2353 1.76393 36.0951 1.97561 35.9549C4.51576 34.1327 7.83206 32.4506 12.2068 31.189C16.7226 29.8573 22.2262 28.9462 29.0705 28.9462C37.0437 28.8761 43.0413 27.6846 47.5571 25.7922Z" fill="#3AC6F4"/>
<path d="M47.6983 23.0588C47.6983 23.97 47.6278 24.8811 47.4867 25.7922C46.4988 32.3805 42.0536 37.7772 36.1266 40.2303C33.9392 41.1414 31.4696 41.632 29.0001 41.632C27.0949 41.632 25.331 41.3517 23.6375 40.8611C18.5572 39.3892 14.3942 35.7447 12.1363 31.1189C11.7835 30.3479 11.4307 29.577 11.219 28.7359C10.6546 26.9136 10.3018 25.0213 10.3018 23.0588C10.3018 21.7272 10.4429 20.4656 10.6546 19.2741C12.4185 10.7935 19.9684 4.48561 29.0001 4.48561C35.9149 4.48561 42.0536 8.27034 45.2993 13.8773C46.7811 16.4005 47.6278 19.3442 47.7689 22.428C47.6983 22.5682 47.6983 22.8486 47.6983 23.0588Z" fill="#101A23"/>
<path d="M29 40.2303C38.5474 40.2303 46.2871 32.5424 46.2871 23.0588C46.2871 13.5753 38.5474 5.88736 29 5.88736C19.4526 5.88736 11.7129 13.5753 11.7129 23.0588C11.7129 32.5424 19.4526 40.2303 29 40.2303Z" fill="#36576C"/>
<path d="M29 39.2491C38.0018 39.2491 45.2992 32.0004 45.2992 23.0588C45.2992 14.1172 38.0018 6.86859 29 6.86859C19.9981 6.86859 12.7007 14.1172 12.7007 23.0588C12.7007 32.0004 19.9981 39.2491 29 39.2491Z" fill="white"/>
<path d="M29 36.5156C36.482 36.5156 42.5474 30.4908 42.5474 23.0588C42.5474 15.6268 36.482 9.602 29 9.602C21.5179 9.602 15.4525 15.6268 15.4525 23.0588C15.4525 30.4908 21.5179 36.5156 29 36.5156Z" fill="#36576C"/>
<path d="M29 35.3942C35.8586 35.3942 41.4185 29.8715 41.4185 23.0588C41.4185 16.2462 35.8586 10.7234 29 10.7234C22.1415 10.7234 16.5815 16.2462 16.5815 23.0588C16.5815 29.8715 22.1415 35.3942 29 35.3942Z" fill="#101A23"/>
<path d="M8.25545 9.74218C9.34659 9.74218 10.2311 8.86356 10.2311 7.77972C10.2311 6.69589 9.34659 5.81727 8.25545 5.81727C7.16432 5.81727 6.27979 6.69589 6.27979 7.77972C6.27979 8.86356 7.16432 9.74218 8.25545 9.74218Z" fill="#101A23"/>
<path d="M12.983 8.90113C13.6065 8.90113 14.1119 8.39906 14.1119 7.77972C14.1119 7.16039 13.6065 6.65832 12.983 6.65832C12.3595 6.65832 11.854 7.16039 11.854 7.77972C11.854 8.39906 12.3595 8.90113 12.983 8.90113Z" fill="#101A23"/>
<path d="M8.25545 9.53191C9.34659 9.53191 10.2311 8.65329 10.2311 7.56946C10.2311 6.48563 9.34659 5.60701 8.25545 5.60701C7.16432 5.60701 6.27979 6.48563 6.27979 7.56946C6.27979 8.65329 7.16432 9.53191 8.25545 9.53191Z" fill="#F3EC52"/>
<path d="M12.983 8.69086C13.6065 8.69086 14.1119 8.1888 14.1119 7.56946C14.1119 6.95013 13.6065 6.44806 12.983 6.44806C12.3595 6.44806 11.854 6.95013 11.854 7.56946C11.854 8.1888 12.3595 8.69086 12.983 8.69086Z" fill="white"/>
<path d="M45.017 51.0238C45.6405 51.0238 46.146 50.5217 46.146 49.9024C46.146 49.283 45.6405 48.781 45.017 48.781C44.3935 48.781 43.8881 49.283 43.8881 49.9024C43.8881 50.5217 44.3935 51.0238 45.017 51.0238Z" fill="#101A23"/>
<path d="M50.6618 51.0939H48.4744C47.8394 51.0939 47.3455 50.6033 47.3455 49.9725C47.3455 49.3417 47.8394 48.8511 48.4744 48.8511H50.6618C51.2968 48.8511 51.7907 49.3417 51.7907 49.9725C51.7907 50.5332 51.2968 51.0939 50.6618 51.0939Z" fill="#101A23"/>
<path d="M48.9684 47.239H46.3577C45.7227 47.239 45.2288 46.7484 45.2288 46.1176C45.2288 45.4869 45.7227 44.9962 46.3577 44.9962H48.9684C49.6035 44.9962 50.0974 45.4869 50.0974 46.1176C50.1679 46.7484 49.674 47.239 48.9684 47.239Z" fill="#101A23"/>
<path d="M45.017 50.8135C45.6405 50.8135 46.146 50.3114 46.146 49.6921C46.146 49.0728 45.6405 48.5707 45.017 48.5707C44.3935 48.5707 43.8881 49.0728 43.8881 49.6921C43.8881 50.3114 44.3935 50.8135 45.017 50.8135Z" fill="#36576C"/>
<path d="M29 11.1439C22.3674 11.1439 17.0049 16.4706 17.0049 23.0588C17.0049 29.6471 22.3674 34.9737 29 34.9737C35.6326 34.9737 40.9952 29.6471 40.9952 23.0588C40.9952 16.4706 35.6326 11.1439 29 11.1439ZM27.4477 26.7735L25.2604 24.6008V21.587L27.5183 19.3442H30.4818L32.6691 21.5169V24.6008L30.5523 26.7034L27.4477 26.7735ZM39.3723 18.9937C39.8662 20.2553 40.1484 21.587 40.1484 23.0588C40.1484 24.3905 39.9368 25.582 39.5134 26.7735H31.5402L39.3723 18.9937ZM39.0195 18.2929L33.3747 23.8999V12.8961C35.8443 13.9474 37.8905 15.9099 39.0195 18.2929ZM32.6691 12.6158V20.5357L24.9076 12.826C26.1776 12.3354 27.5888 12.0551 29 12.0551C30.2701 11.985 31.5402 12.1952 32.6691 12.6158ZM24.202 13.1064L29.7762 18.6433H18.8394C19.8978 16.1902 21.8029 14.2278 24.202 13.1064ZM18.5572 19.4143H26.5304L18.6983 27.1239C18.2044 25.8623 17.9222 24.4606 17.9222 23.0588C17.9222 21.7272 18.1338 20.5357 18.5572 19.4143ZM18.9806 27.8248L24.5548 22.2879V33.1514C22.1557 32.1001 20.1801 30.2078 18.9806 27.8248ZM25.2604 33.5019V25.6521L33.0219 33.3617C31.7518 33.8523 30.4112 34.1327 29 34.1327C27.7299 34.0626 26.4599 33.8523 25.2604 33.5019ZM33.7981 33.0113L28.2239 27.4743H39.2312C38.1022 29.9274 36.1971 31.8899 33.7981 33.0113Z" fill="white"/>
<path d="M50.6618 50.8135H48.4744C47.8394 50.8135 47.3455 50.3229 47.3455 49.6921C47.3455 49.0613 47.8394 48.5707 48.4744 48.5707H50.6618C51.2968 48.5707 51.7907 49.0613 51.7907 49.6921C51.7907 50.3229 51.2968 50.8135 50.6618 50.8135Z" fill="#36576C"/>
<path d="M48.9684 47.0288H46.3577C45.7227 47.0288 45.2288 46.5382 45.2288 45.9074C45.2288 45.2766 45.7227 44.786 46.3577 44.786H48.9684C49.6035 44.786 50.0974 45.2766 50.0974 45.9074C50.1679 46.5382 49.674 47.0288 48.9684 47.0288Z" fill="#36576C"/>
<path d="M45.5109 54.9487H12.5596C6.2092 54.9487 1.12891 49.8323 1.12891 43.5945V12.4055C1.12891 6.09762 6.27976 0.981227 12.5596 0.981227H45.5109C51.8613 0.981227 56.9416 6.09762 56.9416 12.4055V43.5945C56.9416 49.8323 51.7907 54.9487 45.5109 54.9487ZM12.5596 1.40175C6.49144 1.40175 1.55226 6.30789 1.55226 12.3354V43.5244C1.55226 49.5519 6.49144 54.4581 12.5596 54.4581H45.5109C51.579 54.4581 56.5182 49.5519 56.5182 43.5244V12.4055C56.5182 6.37797 51.579 1.47184 45.5109 1.47184C45.4403 1.40175 12.5596 1.40175 12.5596 1.40175Z" fill="#111B23"/>
<defs>
<linearGradient id="paint0_linear_207_9144" x1="3.02425" y1="44.2525" x2="56.7247" y2="44.2525" gradientUnits="userSpaceOnUse">
<stop stop-color="#D97627"/>
<stop offset="1" stop-color="#F3EA0E"/>
</linearGradient>
<linearGradient id="paint1_linear_207_9144" x1="4.15908" y1="2.2653" x2="56.8578" y2="29.0679" gradientUnits="userSpaceOnUse">
<stop stop-color="#164D9A"/>
<stop offset="1" stop-color="#3AC6F4"/>
</linearGradient>
</defs>
</svg>
