<svg width="24" height="24" viewBox="0 0 24 24" fill="none" xmlns="http://www.w3.org/2000/svg">
<path d="M16.0725 4.34998H18.3C18.5387 4.34998 18.7677 4.4448 18.9364 4.61358C19.1052 4.78236 19.2 5.01128 19.2 5.24998V20.1C19.2 20.3387 19.1052 20.5676 18.9364 20.7364C18.7677 20.9052 18.5387 21 18.3 21H5.70005C5.46135 21 5.23244 20.9052 5.06365 20.7364C4.89487 20.5676 4.80005 20.3387 4.80005 20.1V5.24998C4.80005 5.01128 4.89487 4.78236 5.06365 4.61358C5.23244 4.4448 5.46135 4.34998 5.70005 4.34998H8.85005V5.69998H15.15V4.34998H16.0725Z" stroke="white" stroke-width="1.5" stroke-linejoin="round"/>
<path d="M13.3501 9.75L9.7501 13.3505H14.2519L10.6501 16.9505M8.8501 3H15.1501V5.7H8.8501V3Z" stroke="white" stroke-width="1.5" stroke-linecap="round" stroke-linejoin="round"/>
</svg>
