<svg width="24" height="24" viewBox="0 0 24 24" fill="none" xmlns="http://www.w3.org/2000/svg">
<path fill-rule="evenodd" clip-rule="evenodd" d="M13.6828 2.10309C14.0177 1.89843 14.4456 2.01006 14.641 2.33565C15.1805 3.23799 15.441 5.23802 13.3759 6.95897C13.0782 7.20083 12.641 7.16362 12.3898 6.86595C12.2731 6.72216 12.2174 6.5383 12.2348 6.3539C12.2522 6.16951 12.3412 5.9993 12.4828 5.87988C13.9898 4.62405 13.6456 3.39613 13.441 3.06124C13.3482 2.90158 13.3215 2.71195 13.3667 2.53289C13.4119 2.35383 13.5254 2.19957 13.6828 2.10309ZM19.0038 5.98221C19.2736 5.71244 19.2736 5.26592 19.0038 4.99615C18.8724 4.86662 18.6953 4.79401 18.5108 4.79401C18.3263 4.79401 18.1492 4.86662 18.0178 4.99615L15.2271 7.78689C14.9573 8.05666 14.9573 8.50318 15.2271 8.77295C15.4968 9.04272 15.9433 9.04272 16.2131 8.77295L19.0038 5.98221ZM12.8363 9.36831L14.6317 11.1637C15.4968 12.0381 16.2131 12.7451 16.6689 13.3591C17.1434 14.0009 17.4596 14.68 17.3108 15.4614C17.1713 16.2428 16.6317 16.7638 15.9619 17.1917C15.3015 17.6103 14.3898 18.0196 13.2642 18.5126L10.0735 19.9359C8.18509 20.7731 6.6874 21.4336 5.5525 21.7592C4.4455 22.0848 3.35712 22.1778 2.59431 21.4057C1.82221 20.6429 1.91523 19.5545 2.24082 18.4475C2.56641 17.3126 3.22688 15.8149 4.0641 13.9265L5.45947 10.7916L5.48738 10.7358C5.98041 9.61017 6.38972 8.69853 6.80833 8.03805C7.23624 7.36828 7.75718 6.82874 8.53858 6.6892C9.31999 6.54036 9.99907 6.85664 10.6409 7.33107C11.2549 7.78689 11.9619 8.50318 12.8363 9.36831ZM9.80372 8.44736C9.29208 8.06596 9.01301 8.01945 8.78975 8.05666C8.56649 8.10317 8.32463 8.24271 7.98044 8.79155C7.77578 9.11714 7.56183 9.53575 7.31996 10.066C7.33857 10.0753 7.35717 10.0939 7.37578 10.1125L13.8875 16.6242C13.8875 16.6242 13.9247 16.6614 13.934 16.68C14.4643 16.4382 14.8829 16.2242 15.2084 16.0196C15.7573 15.6754 15.8968 15.4335 15.9433 15.2102C15.9806 14.987 15.934 14.7079 15.5526 14.1963C15.1619 13.666 14.5201 13.0335 13.5991 12.1125L11.8875 10.4009C10.9665 9.47994 10.334 8.83807 9.80372 8.44736ZM5.36645 14.4381L6.706 11.4148L12.5852 17.294L9.56185 18.6336L9.38511 18.708C9.35439 18.6226 9.3033 18.5459 9.23627 18.4847L5.51529 14.7637C5.45408 14.6967 5.37744 14.6456 5.29203 14.6149L5.36645 14.4381ZM4.70597 15.9265L8.07346 19.294C6.86414 19.8243 5.91529 20.2057 5.17109 20.4196C4.10131 20.7266 3.74782 20.5964 3.58037 20.4196C3.40363 20.2522 3.27339 19.8987 3.58037 18.8289C3.79433 18.0847 4.17573 17.1359 4.70597 15.9265ZM21.6644 9.359C20.762 8.81946 18.762 8.55899 17.041 10.6241C16.7992 10.9218 16.8364 11.359 17.1341 11.6102C17.4317 11.8521 17.8689 11.8149 18.1201 11.5172C19.3759 10.0102 20.6039 10.3544 20.9388 10.559C21.2736 10.7544 21.7016 10.6427 21.8969 10.3172C22.1016 9.98227 21.9899 9.55436 21.6644 9.359ZM17.5806 2.00076C17.962 2.00076 18.2783 2.31704 18.2783 2.69844V2.71705C18.2783 3.09845 17.962 3.41473 17.5806 3.41473C17.1992 3.41473 16.8829 3.09845 16.8829 2.71705V2.69844C16.8829 2.31704 17.1992 2.00076 17.5806 2.00076ZM21.9992 6.41943C21.9992 6.03803 21.683 5.72174 21.3016 5.72174C20.9202 5.72174 20.6039 6.03803 20.6039 6.41943V6.43803C20.6039 6.81943 20.9202 7.13572 21.3016 7.13572C21.683 7.13572 21.9992 6.81943 21.9992 6.43803V6.41943ZM20.3713 12.2335C20.7527 12.2335 21.069 12.5497 21.069 12.9311V12.9498C21.069 13.3312 20.7527 13.6474 20.3713 13.6474C19.9899 13.6474 19.6736 13.3312 19.6736 12.9498V12.9311C19.6736 12.5497 19.9899 12.2335 20.3713 12.2335ZM11.7665 3.62869C11.7665 3.24729 11.4503 2.93101 11.0689 2.93101C10.6875 2.93101 10.3712 3.24729 10.3712 3.62869V3.64729C10.3712 4.0287 10.6875 4.34498 11.0689 4.34498C11.4503 4.34498 11.7665 4.0287 11.7665 3.64729V3.62869Z" fill="white"/>
</svg>
