<svg width="24" height="24" viewBox="0 0 24 24" fill="none" xmlns="http://www.w3.org/2000/svg">
<path d="M11.9999 11L7.99991 21M9.97391 16.572C11.0619 17.0544 12.2862 17.133 13.4269 16.7935C14.5676 16.454 15.5498 15.7188 16.197 14.72C16.8441 13.7212 17.1137 12.5243 16.9574 11.3445C16.8011 10.1647 16.2291 9.07928 15.3441 8.28347C14.4592 7.48765 13.3194 7.03358 12.1297 7.00289C10.94 6.97219 9.7783 7.36688 8.85351 8.116C7.92873 8.86512 7.30148 9.91955 7.08452 11.0897C6.86757 12.2599 7.07513 13.4691 7.66991 14.5" stroke="white" stroke-width="1.5" stroke-linecap="round" stroke-linejoin="round"/>
<path d="M12 22C17.5228 22 22 17.5228 22 12C22 6.47715 17.5228 2 12 2C6.47715 2 2 6.47715 2 12C2 17.5228 6.47715 22 12 22Z" stroke="white" stroke-width="1.5" stroke-linecap="round" stroke-linejoin="round"/>
</svg>
