<svg width="56" height="56" viewBox="0 0 56 56" fill="none" xmlns="http://www.w3.org/2000/svg">
<path d="M26.7368 34.7368C26.7368 35.0719 26.8699 35.3931 27.1068 35.63C27.3437 35.8669 27.665 36 28 36C28.335 36 28.6563 35.8669 28.8932 35.63C29.1301 35.3931 29.2632 35.0719 29.2632 34.7368V29.2632H34.7368C35.0719 29.2632 35.3931 29.1301 35.63 28.8932C35.8669 28.6563 36 28.335 36 28C36 27.665 35.8669 27.3437 35.63 27.1068C35.3931 26.8699 35.0719 26.7368 34.7368 26.7368H29.2632V21.2632C29.2632 20.9281 29.1301 20.6069 28.8932 20.37C28.6563 20.1331 28.335 20 28 20C27.665 20 27.3437 20.1331 27.1068 20.37C26.8699 20.6069 26.7368 20.9281 26.7368 21.2632V26.7368H21.2632C20.9281 26.7368 20.6069 26.8699 20.37 27.1068C20.1331 27.3437 20 27.665 20 28C20 28.335 20.1331 28.6563 20.37 28.8932C20.6069 29.1301 20.9281 29.2632 21.2632 29.2632H26.7368V34.7368Z" fill="white"/>
<circle cx="28" cy="28" r="27" stroke="white" stroke-width="2"/>
</svg>
