<svg width="24" height="24" viewBox="0 0 24 24" fill="none" xmlns="http://www.w3.org/2000/svg">
<path d="M16.0002 13.2752C16.0002 13.5994 15.8779 13.9104 15.6602 14.1397C15.4425 14.369 15.1472 14.4978 14.8393 14.4978C14.5315 14.4978 14.2362 14.369 14.0185 14.1397C13.8007 13.9104 13.6784 13.5994 13.6784 13.2752C13.6784 12.9509 13.8007 12.6399 14.0185 12.4106C14.2362 12.1813 14.5315 12.0525 14.8393 12.0525C15.1472 12.0525 15.4425 12.1813 15.6602 12.4106C15.8779 12.6399 16.0002 12.9509 16.0002 13.2752ZM9.16075 14.4974C9.46853 14.4974 9.76371 14.3686 9.98134 14.1394C10.199 13.9102 10.3212 13.5993 10.3212 13.2752C10.3212 12.951 10.199 12.6401 9.98134 12.4109C9.76371 12.1817 9.46853 12.0529 9.16075 12.0529C8.85296 12.0529 8.55778 12.1817 8.34015 12.4109C8.12251 12.6401 8.00024 12.951 8.00024 13.2752C8.00024 13.5993 8.12251 13.9102 8.34015 14.1394C8.55778 14.3686 8.85296 14.4974 9.16075 14.4974ZM9.47593 15.9182C9.34122 15.8347 9.18096 15.8098 9.02908 15.8486C8.8772 15.8874 8.74563 15.987 8.66223 16.1262C8.57884 16.2654 8.55017 16.4333 8.58229 16.5944C8.61441 16.7555 8.70481 16.8971 8.83433 16.9892L9.11102 17.1734C9.97559 17.7477 10.9769 18.0525 11.999 18.0525C13.0212 18.0525 14.0225 17.7477 14.8871 17.1734L15.1638 16.9901C15.2306 16.9457 15.2886 16.8879 15.3342 16.8199C15.3799 16.752 15.4124 16.6752 15.4299 16.5941C15.4474 16.5129 15.4496 16.4289 15.4362 16.3468C15.4229 16.2648 15.3944 16.1863 15.3522 16.1158C15.3101 16.0454 15.2552 15.9844 15.1907 15.9363C15.1262 15.8882 15.0533 15.854 14.9762 15.8355C14.8991 15.8171 14.8194 15.8148 14.7415 15.8289C14.6635 15.8429 14.589 15.873 14.5221 15.9173L14.2455 16.1015C13.573 16.5482 12.7941 16.7853 11.999 16.7853C11.2039 16.7853 10.4251 16.5482 9.75262 16.1015L9.47593 15.9182Z" fill="white"/>
<path fill-rule="evenodd" clip-rule="evenodd" d="M18.7749 3.05249C18.0319 3.05249 17.3825 3.47093 17.0404 4.0903L13.9764 3.44473C13.832 3.41437 13.6818 3.43624 13.5514 3.50662C13.4209 3.577 13.3182 3.69156 13.2606 3.83085C12.9108 4.67472 12.3866 5.9545 11.9482 7.04997C11.7933 7.43783 11.6486 7.80386 11.5269 8.1201C9.78473 8.19173 8.17104 8.65909 6.85098 9.41648C6.6385 9.05075 6.34412 8.74229 5.99226 8.51668C5.64041 8.29107 5.24122 8.15483 4.8278 8.11924C4.41438 8.08366 3.99866 8.14976 3.61511 8.31206C3.23156 8.47436 2.89124 8.72819 2.62238 9.05249C2.35352 9.37679 2.16387 9.76221 2.06916 10.1768C1.97444 10.5914 1.9774 11.0231 2.07778 11.4363C2.17816 11.8495 2.37308 12.2321 2.64635 12.5525C2.91963 12.8729 3.26339 13.1218 3.64913 13.2786C3.53565 13.6979 3.47862 14.132 3.47806 14.5811C3.47806 16.4522 4.50704 18.0858 6.05264 19.2258C7.59995 20.3676 9.70388 21.0525 12.0002 21.0525C14.2956 21.0525 16.4004 20.3676 17.9477 19.2267C19.4933 18.0858 20.5222 16.4522 20.5222 14.5811C20.5222 14.132 20.4627 13.697 20.352 13.2794C20.7376 13.1226 21.0813 12.8737 21.3544 12.5533C21.6276 12.2329 21.8224 11.8503 21.9228 11.4372C22.0231 11.0242 22.026 10.5925 21.9313 10.178C21.8367 9.76348 21.6471 9.37813 21.3783 9.05386C21.1095 8.7296 20.7693 8.47577 20.3859 8.31342C20.0024 8.15106 19.5868 8.08487 19.1735 8.12032C18.7601 8.15577 18.361 8.29184 18.0091 8.51726C17.6572 8.74267 17.3628 9.05093 17.1502 9.41648C15.9357 8.72024 14.4735 8.2686 12.8921 8.14456C12.967 7.9547 13.0464 7.75552 13.1304 7.54703C13.4862 6.65511 13.9015 5.63827 14.2317 4.83633L16.8004 5.37795C16.8525 5.76725 17.0127 6.13292 17.2619 6.43129C17.511 6.72965 17.8386 6.94809 18.2054 7.06051C18.5723 7.17293 18.9629 7.17459 19.3307 7.06527C19.6984 6.95596 20.0277 6.7403 20.2793 6.44405C20.5308 6.14781 20.6939 5.7835 20.7492 5.39465C20.8044 5.0058 20.7495 4.60885 20.5908 4.2512C20.4322 3.89356 20.1766 3.59035 19.8546 3.37778C19.5326 3.16522 19.1578 3.05229 18.7749 3.05249ZM18.0583 5.0984C18.0583 4.90321 18.1339 4.716 18.2683 4.57798C18.4028 4.43996 18.5852 4.36242 18.7754 4.36242C18.9655 4.36242 19.1479 4.43996 19.2824 4.57798C19.4169 4.716 19.4924 4.90321 19.4924 5.0984C19.4924 5.2936 19.4169 5.4808 19.2824 5.61882C19.1479 5.75685 18.9655 5.83439 18.7754 5.83439C18.5852 5.83439 18.4028 5.75685 18.2683 5.61882C18.1339 5.4808 18.0583 5.2936 18.0583 5.0984ZM12.0002 9.42085C12.1307 9.42085 12.2612 9.42347 12.3917 9.42871C12.3895 9.45623 12.3861 9.48363 12.3814 9.51083L12.3797 9.51519L12.3823 9.50646L12.407 9.42958C14.2998 9.50471 15.9825 10.1022 17.2021 11.002C18.5102 11.9664 19.2456 13.241 19.2456 14.5819C19.2456 15.9237 18.5094 17.1983 17.2029 18.1636C15.8957 19.1263 14.059 19.743 12.0002 19.743C9.94133 19.743 8.10465 19.1263 6.79821 18.1627C5.49006 17.1983 4.75471 15.9237 4.75471 14.5819C4.75471 13.241 5.49006 11.9664 6.79736 11.002C8.10465 10.0376 9.94218 9.41997 12.0002 9.41997M3.27634 10.788C3.27641 10.4831 3.37575 10.1869 3.55856 9.94651C3.74138 9.70614 3.9972 9.53536 4.2854 9.46128C4.57359 9.3872 4.87764 9.41408 5.14925 9.53765C5.42086 9.66121 5.64446 9.87438 5.78454 10.1433C5.10451 10.6936 4.53938 11.3427 4.13851 12.0687C3.88528 11.97 3.66723 11.7947 3.51326 11.566C3.35929 11.3373 3.27667 11.066 3.27634 10.788ZM19.8618 12.0687C19.4609 11.3436 18.8958 10.6928 18.2158 10.1433C18.3174 9.94838 18.4636 9.78165 18.6417 9.65739C18.8199 9.53313 19.0247 9.45504 19.2387 9.42981C19.4527 9.40457 19.6695 9.43295 19.8704 9.5125C20.0714 9.59205 20.2506 9.72041 20.3927 9.88659C20.5347 10.0528 20.6354 10.2518 20.6862 10.4667C20.7369 10.6815 20.7361 10.9058 20.684 11.1203C20.6318 11.3348 20.5297 11.5331 20.3865 11.6983C20.2433 11.8635 20.0633 11.9905 19.8618 12.0687Z" fill="white"/>
</svg>
