<svg width="80" height="80" viewBox="0 0 80 80" fill="none" xmlns="http://www.w3.org/2000/svg">
<g filter="url(#filter0_d_304_16546)">
<circle cx="40" cy="32" r="16" fill="#FF6200"/>
</g>
<path d="M43.3337 33.0627C43.3337 33.3329 43.2317 33.592 43.0503 33.7831C42.8689 33.9742 42.6228 34.0816 42.3662 34.0816C42.1097 34.0816 41.8636 33.9742 41.6822 33.7831C41.5007 33.592 41.3988 33.3329 41.3988 33.0627C41.3988 32.7924 41.5007 32.5333 41.6822 32.3422C41.8636 32.1511 42.1097 32.0438 42.3662 32.0438C42.6228 32.0438 42.8689 32.1511 43.0503 32.3422C43.2317 32.5333 43.3337 32.7924 43.3337 33.0627ZM37.6341 34.0812C37.8906 34.0812 38.1365 33.9739 38.3179 33.7829C38.4993 33.5919 38.6012 33.3328 38.6012 33.0627C38.6012 32.7925 38.4993 32.5335 38.3179 32.3424C38.1365 32.1514 37.8906 32.0441 37.6341 32.0441C37.3776 32.0441 37.1316 32.1514 36.9502 32.3424C36.7689 32.5335 36.667 32.7925 36.667 33.0627C36.667 33.3328 36.7689 33.5919 36.9502 33.7829C37.1316 33.9739 37.3776 34.0812 37.6341 34.0812ZM37.8967 35.2652C37.7845 35.1956 37.6509 35.1748 37.5244 35.2072C37.3978 35.2395 37.2881 35.3225 37.2187 35.4385C37.1492 35.5545 37.1253 35.6945 37.152 35.8287C37.1788 35.9629 37.2541 36.0809 37.3621 36.1577L37.5926 36.3112C38.3131 36.7898 39.1475 37.0438 39.9993 37.0438C40.8511 37.0438 41.6855 36.7898 42.406 36.3112L42.6366 36.1584C42.6923 36.1214 42.7406 36.0733 42.7786 36.0166C42.8167 35.96 42.8438 35.8961 42.8584 35.8284C42.873 35.7608 42.8747 35.6907 42.8636 35.6224C42.8525 35.554 42.8287 35.4886 42.7936 35.4299C42.7585 35.3712 42.7128 35.3203 42.659 35.2803C42.6053 35.2402 42.5445 35.2116 42.4803 35.1963C42.4161 35.1809 42.3496 35.179 42.2847 35.1907C42.2197 35.2024 42.1576 35.2275 42.1019 35.2645L41.8713 35.4179C41.3109 35.7902 40.6619 35.9878 39.9993 35.9878C39.3367 35.9878 38.6877 35.7902 38.1273 35.4179L37.8967 35.2652Z" fill="white"/>
<path fill-rule="evenodd" clip-rule="evenodd" d="M45.6459 24.5438C45.0267 24.5438 44.4856 24.8925 44.2004 25.4086L41.6471 24.8706C41.5268 24.8453 41.4017 24.8636 41.2929 24.9222C41.1842 24.9809 41.0986 25.0763 41.0507 25.1924C40.7591 25.8956 40.3222 26.9621 39.957 27.875C39.8279 28.1982 39.7073 28.5032 39.6059 28.7668C38.1541 28.8265 36.8093 29.2159 35.7093 29.8471C35.5322 29.5423 35.2869 29.2853 34.9937 29.0973C34.7005 28.9092 34.3678 28.7957 34.0233 28.7661C33.6788 28.7364 33.3323 28.7915 33.0127 28.9267C32.6931 29.062 32.4095 29.2735 32.1854 29.5438C31.9614 29.814 31.8033 30.1352 31.7244 30.4807C31.6455 30.8262 31.648 31.186 31.7316 31.5303C31.8153 31.8746 31.9777 32.1935 32.2054 32.4605C32.4331 32.7274 32.7196 32.9349 33.0411 33.0655C32.9465 33.4149 32.899 33.7767 32.8985 34.1509C32.8985 35.7102 33.756 37.0715 35.044 38.0216C36.3334 38.973 38.0867 39.5438 40.0002 39.5438C41.9131 39.5438 43.6671 38.973 44.9565 38.0223C46.2445 37.0715 47.102 35.7102 47.102 34.1509C47.102 33.7767 47.0523 33.4142 46.9601 33.0662C47.2815 32.9355 47.5679 32.7281 47.7955 32.4611C48.0231 32.1941 48.1855 31.8753 48.2691 31.5311C48.3527 31.1868 48.3551 30.8271 48.2762 30.4817C48.1973 30.1363 48.0393 29.8151 47.8154 29.5449C47.5914 29.2747 47.3079 29.0632 46.9884 28.9279C46.6688 28.7926 46.3225 28.7374 45.978 28.767C45.6336 28.7965 45.3009 28.9099 45.0077 29.0977C44.7145 29.2856 44.4691 29.5425 44.2919 29.8471C43.2798 29.2669 42.0613 28.8905 40.7435 28.7871C40.806 28.6289 40.8722 28.463 40.9421 28.2892C41.2386 27.5459 41.5847 26.6986 41.8599 26.0303L44.0004 26.4816C44.0439 26.8061 44.1774 27.1108 44.385 27.3594C44.5926 27.6081 44.8656 27.7901 45.1713 27.8838C45.477 27.9775 45.8026 27.9788 46.109 27.8877C46.4155 27.7967 46.6899 27.6169 46.8995 27.3701C47.1091 27.1232 47.2451 26.8196 47.2911 26.4956C47.3372 26.1715 47.2914 25.8407 47.1592 25.5427C47.027 25.2447 46.814 24.992 46.5456 24.8148C46.2773 24.6377 45.9649 24.5436 45.6459 24.5438ZM45.0487 26.2487C45.0487 26.086 45.1117 25.93 45.2237 25.815C45.3358 25.7 45.4878 25.6354 45.6463 25.6354C45.8047 25.6354 45.9567 25.7 46.0688 25.815C46.1808 25.93 46.2438 26.086 46.2438 26.2487C46.2438 26.4114 46.1808 26.5674 46.0688 26.6824C45.9567 26.7974 45.8047 26.862 45.6463 26.862C45.4878 26.862 45.3358 26.7974 45.2237 26.6824C45.1117 26.5674 45.0487 26.4114 45.0487 26.2487ZM40.0002 29.8507C40.109 29.8507 40.2178 29.8529 40.3265 29.8573C40.3247 29.8802 40.3219 29.903 40.318 29.9257L40.3166 29.9293L40.3187 29.9221L40.3393 29.858C41.9166 29.9206 43.3188 30.4185 44.3352 31.1684C45.4253 31.9721 46.0381 33.0342 46.0381 34.1516C46.0381 35.2698 45.4246 36.3319 44.3359 37.1363C43.2465 37.9386 41.7159 38.4525 40.0002 38.4525C38.2846 38.4525 36.754 37.9386 35.6653 37.1356C34.5752 36.3319 33.9624 35.2698 33.9624 34.1516C33.9624 33.0342 34.5752 31.9721 35.6646 31.1684C36.754 30.3647 38.2853 29.85 40.0002 29.85M32.7304 30.99C32.7305 30.7359 32.8132 30.4891 32.9656 30.2888C33.1179 30.0885 33.3311 29.9461 33.5713 29.8844C33.8114 29.8227 34.0648 29.8451 34.2912 29.9481C34.5175 30.051 34.7038 30.2287 34.8206 30.4528C34.2539 30.9114 33.7829 31.4523 33.4489 32.0572C33.2379 31.975 33.0561 31.829 32.9278 31.6384C32.7995 31.4478 32.7307 31.2217 32.7304 30.99ZM46.5516 32.0572C46.2176 31.453 45.7466 30.9107 45.1799 30.4528C45.2646 30.2903 45.3864 30.1514 45.5349 30.0478C45.6834 29.9443 45.8541 29.8792 46.0324 29.8582C46.2107 29.8372 46.3913 29.8608 46.5588 29.9271C46.7263 29.9934 46.8756 30.1004 46.994 30.2388C47.1124 30.3773 47.1963 30.5432 47.2386 30.7222C47.2809 30.9013 47.2802 31.0882 47.2368 31.2669C47.1933 31.4457 47.1082 31.611 46.9889 31.7486C46.8696 31.8862 46.7195 31.9921 46.5516 32.0572Z" fill="white"/>
<defs>
<filter id="filter0_d_304_16546" x="0" y="0" width="80" height="80" filterUnits="userSpaceOnUse" color-interpolation-filters="sRGB">
<feFlood flood-opacity="0" result="BackgroundImageFix"/>
<feColorMatrix in="SourceAlpha" type="matrix" values="0 0 0 0 0 0 0 0 0 0 0 0 0 0 0 0 0 0 127 0" result="hardAlpha"/>
<feOffset dy="8"/>
<feGaussianBlur stdDeviation="12"/>
<feColorMatrix type="matrix" values="0 0 0 0 0 0 0 0 0 0 0 0 0 0 0 0 0 0 0.08 0"/>
<feBlend mode="normal" in2="BackgroundImageFix" result="effect1_dropShadow_304_16546"/>
<feBlend mode="normal" in="SourceGraphic" in2="effect1_dropShadow_304_16546" result="shape"/>
</filter>
</defs>
</svg>
