<svg width="24" height="24" viewBox="0 0 24 24" fill="none" xmlns="http://www.w3.org/2000/svg">
<path d="M17.1429 8.81013C17.1429 1.06329 6.85714 1.06329 6.85714 8.81013V10.1013H5.46171C4.962 10.1013 4.75629 10.746 5.16343 11.0378L6.85714 12.2532C6.57171 13.2577 5.4 15.438 3 16.1266C3.28543 16.557 4.11429 17.4177 5.14286 17.4177L6 18.7089L8.14286 18.2785C8.85686 18.8526 10.6286 20 12 20C13.3714 20 15.1431 18.8526 15.8571 18.2785L18 18.7089L18.8571 17.4177C19.8857 17.4177 20.7146 16.557 21 16.1266C18.6 15.438 17.4283 13.2577 17.1429 12.2532L18.8366 11.0378C19.2437 10.746 19.038 10.1013 18.5383 10.1013H17.1429V8.81013Z" stroke="white" stroke-width="1.5" stroke-linecap="round" stroke-linejoin="round"/>
</svg>
