<svg width="80" height="80" viewBox="0 0 80 80" fill="none" xmlns="http://www.w3.org/2000/svg">
<g filter="url(#filter0_d_116_1522)">
<circle cx="40" cy="32" r="16" fill="black"/>
</g>
<path d="M33.5598 37.5461L33.611 37.6905C33.6044 37.6739 33.5857 37.6234 33.5598 37.5461ZM35.5836 34.2741C35.6734 33.4982 35.9784 33.0639 36.5531 32.6186C37.3753 32.0155 38.4025 32.3566 38.4025 32.3566V30.3329C38.6522 30.3262 38.902 30.3416 39.149 30.379V32.9834C39.149 32.9834 38.1222 32.6423 37.2999 33.2457C36.7255 33.6906 36.4199 34.1253 36.3304 34.9012C36.3276 35.3224 36.4034 35.8731 36.7523 36.3493C36.666 36.3031 36.5781 36.2505 36.4885 36.1915C35.7199 35.653 35.5798 34.845 35.5836 34.2741ZM43.3902 26.5909C42.8246 25.9442 42.6106 25.2912 42.5333 24.8325H43.2449C43.2449 24.8325 43.103 26.0352 44.137 27.218L44.1514 27.2339C43.8727 27.051 43.6171 26.8351 43.3902 26.5909ZM46.8181 28.4245V30.9765C46.8181 30.9765 45.9101 30.9394 45.2381 30.761C44.2998 30.5115 43.6967 30.1289 43.6967 30.1289C43.6967 30.1289 43.2801 29.8561 43.2465 29.8371V35.107C43.2465 35.4004 43.1694 36.1332 42.9346 36.7444C42.6281 37.5439 42.1551 38.0687 42.0681 38.176C42.0681 38.176 41.4927 38.8854 40.4777 39.3631C39.5628 39.7941 38.7596 39.7831 38.5194 39.7941C38.5194 39.7941 37.1309 39.8514 35.8814 39.0042C35.6112 38.8174 35.359 38.6059 35.128 38.3724L35.1342 38.3771C36.384 39.2243 37.7723 39.167 37.7723 39.167C38.0127 39.156 38.816 39.167 39.7306 38.736C40.7447 38.2583 41.3209 37.5489 41.3209 37.5489C41.407 37.4416 41.8822 36.9168 42.1875 36.117C42.4217 35.5061 42.4993 34.773 42.4993 34.4796V29.2103C42.533 29.2296 42.9493 29.5025 42.9493 29.5025C42.9493 29.5025 43.5527 29.8854 44.491 30.1345C45.1633 30.3129 46.071 30.35 46.071 30.35V28.3503C46.3816 28.4229 46.6463 28.4426 46.8181 28.4245Z" fill="#EE1D52"/>
<path d="M46.0713 28.3503V30.3494C46.0713 30.3494 45.1636 30.3123 44.4912 30.1339C43.553 29.8845 42.9496 29.5018 42.9496 29.5018C42.9496 29.5018 42.5333 29.229 42.4996 29.2097V34.4802C42.4996 34.7736 42.4226 35.5067 42.1878 36.1176C41.8812 36.9174 41.4082 37.4422 41.3212 37.5495C41.3212 37.5495 40.7456 38.2589 39.7309 38.7366C38.8163 39.1676 38.013 39.1567 37.7726 39.1676C37.7726 39.1676 36.3843 39.225 35.1345 38.3777L35.1283 38.373C34.9963 38.2397 34.8721 38.099 34.7563 37.9515C34.3574 37.4441 34.113 36.8442 34.0515 36.673C34.0514 36.6722 34.0514 36.6715 34.0515 36.6708C33.9527 36.3733 33.745 35.6589 33.7734 34.9669C33.8236 33.7461 34.2352 32.9968 34.344 32.8091C34.6323 32.2972 35.0071 31.8392 35.452 31.4554C35.8445 31.1243 36.2894 30.8609 36.7685 30.6759C37.2864 30.4587 37.841 30.3423 38.4025 30.3329V32.3566C38.4025 32.3566 37.3753 32.0167 36.5533 32.6186C35.9786 33.0639 35.6737 33.4982 35.5839 34.2741C35.5801 34.845 35.7201 35.653 36.4882 36.1918C36.5778 36.2511 36.6657 36.3036 36.752 36.3496C36.8862 36.5316 37.0495 36.6901 37.2353 36.8189C37.9856 37.3144 38.6142 37.349 39.4181 37.0272C39.9541 36.812 40.3576 36.3271 40.5447 35.7899C40.6623 35.4543 40.6607 35.1166 40.6607 34.7674V24.8325H42.5317C42.6091 25.2912 42.823 25.9442 43.3886 26.5909C43.6155 26.8351 43.8711 27.051 44.1498 27.2339C44.2321 27.3228 44.6531 27.7621 45.1935 28.0319C45.4729 28.1713 45.7674 28.2781 46.0713 28.3503Z" fill="white"/>
<path d="M36.7684 30.6758C36.2894 30.8608 35.8444 31.1243 35.4519 31.4554C35.0069 31.84 34.6322 32.2989 34.3443 32.8118C34.2355 32.9989 33.8239 33.7489 33.7736 34.9697C33.7453 35.6616 33.9529 36.376 34.0518 36.6735C34.0517 36.6742 34.0517 36.675 34.0518 36.6757C34.1142 36.8453 34.3577 37.4453 34.7565 37.9542C34.8724 38.1017 34.9966 38.2425 35.1285 38.3758C34.7058 38.0834 34.3287 37.7299 34.0097 37.3268C33.6143 36.8238 33.3705 36.2301 33.3068 36.0548C33.3068 36.0536 33.3068 36.0524 33.3068 36.0511V36.0489C33.2077 35.7517 32.9994 35.037 33.0284 34.3442C33.0786 33.1233 33.4902 32.374 33.599 32.1863C33.8868 31.6734 34.2616 31.2144 34.7066 30.8298C35.0991 30.4986 35.544 30.2351 36.0232 30.0503C36.322 29.9263 36.6334 29.8348 36.9518 29.7774C37.4317 29.6937 37.9218 29.6864 38.404 29.7559V30.3328C37.8419 30.342 37.2868 30.4584 36.7684 30.6758Z" fill="#69C9D0"/>
<path d="M42.5332 24.8326H40.6622V34.7678C40.6622 35.117 40.6622 35.4538 40.5462 35.7903C40.3572 36.3272 39.9553 36.8121 39.4196 37.0273C38.6154 37.3503 37.9867 37.3145 37.2368 36.819C37.0506 36.6908 36.8869 36.5328 36.7522 36.3512C37.3911 36.6921 37.963 36.6861 38.6715 36.4017C39.2069 36.1866 39.6095 35.7017 39.7978 35.1644C39.9157 34.8289 39.9141 34.4912 39.9141 34.1422V24.2052H42.4976C42.4976 24.2052 42.4686 24.4522 42.5332 24.8326ZM46.0712 27.7975V28.3503C45.7679 28.2781 45.4739 28.1713 45.195 28.032C44.6546 27.7622 44.2336 27.3229 44.1513 27.234C44.2468 27.2967 44.3459 27.3538 44.4481 27.4049C45.1051 27.7329 45.7522 27.8308 46.0712 27.7975Z" fill="#69C9D0"/>
<defs>
<filter id="filter0_d_116_1522" x="0" y="0" width="80" height="80" filterUnits="userSpaceOnUse" color-interpolation-filters="sRGB">
<feFlood flood-opacity="0" result="BackgroundImageFix"/>
<feColorMatrix in="SourceAlpha" type="matrix" values="0 0 0 0 0 0 0 0 0 0 0 0 0 0 0 0 0 0 127 0" result="hardAlpha"/>
<feOffset dy="8"/>
<feGaussianBlur stdDeviation="12"/>
<feColorMatrix type="matrix" values="0 0 0 0 0 0 0 0 0 0 0 0 0 0 0 0 0 0 0.08 0"/>
<feBlend mode="normal" in2="BackgroundImageFix" result="effect1_dropShadow_116_1522"/>
<feBlend mode="normal" in="SourceGraphic" in2="effect1_dropShadow_116_1522" result="shape"/>
</filter>
</defs>
</svg>
