<svg width="32" height="32" viewBox="0 0 32 32" fill="none" xmlns="http://www.w3.org/2000/svg">
<circle cx="16" cy="16" r="16" fill="black"/>
<path d="M9.55981 21.5461L9.61095 21.6905C9.60441 21.6739 9.5857 21.6234 9.55981 21.5461ZM11.5836 18.2741C11.6734 17.4982 11.9784 17.0639 12.5531 16.6186C13.3753 16.0155 14.4025 16.3566 14.4025 16.3566V14.3329C14.6522 14.3262 14.902 14.3416 15.149 14.379V16.9834C15.149 16.9834 14.1222 16.6423 13.2999 17.2457C12.7255 17.6906 12.4199 18.1253 12.3304 18.9012C12.3276 19.3224 12.4034 19.8731 12.7523 20.3493C12.666 20.3031 12.5781 20.2505 12.4885 20.1915C11.7199 19.653 11.5798 18.845 11.5836 18.2741ZM19.3902 10.5909C18.8246 9.94419 18.6106 9.29122 18.5333 8.83252H19.2449C19.2449 8.83252 19.103 10.0352 20.137 11.218L20.1514 11.2339C19.8727 11.051 19.6171 10.8351 19.3902 10.5909ZM22.8181 12.4245V14.9765C22.8181 14.9765 21.9101 14.9394 21.2381 14.761C20.2998 14.5115 19.6967 14.1289 19.6967 14.1289C19.6967 14.1289 19.2801 13.8561 19.2465 13.8371V19.107C19.2465 19.4004 19.1694 20.1332 18.9346 20.7444C18.6281 21.5439 18.1551 22.0687 18.0681 22.176C18.0681 22.176 17.4927 22.8854 16.4777 23.3631C15.5628 23.7941 14.7596 23.7831 14.5194 23.7941C14.5194 23.7941 13.1309 23.8514 11.8814 23.0042C11.6112 22.8174 11.359 22.6059 11.128 22.3724L11.1342 22.3771C12.384 23.2243 13.7723 23.167 13.7723 23.167C14.0127 23.156 14.816 23.167 15.7306 22.736C16.7447 22.2583 17.3209 21.5489 17.3209 21.5489C17.407 21.4416 17.8822 20.9168 18.1875 20.117C18.4217 19.5061 18.4993 18.773 18.4993 18.4796V13.2103C18.533 13.2296 18.9493 13.5025 18.9493 13.5025C18.9493 13.5025 19.5527 13.8854 20.491 14.1345C21.1633 14.3129 22.071 14.35 22.071 14.35V12.3503C22.3816 12.4229 22.6463 12.4426 22.8181 12.4245Z" fill="#EE1D52"/>
<path d="M22.0713 12.3503V14.3494C22.0713 14.3494 21.1636 14.3123 20.4912 14.1339C19.553 13.8845 18.9496 13.5018 18.9496 13.5018C18.9496 13.5018 18.5333 13.229 18.4996 13.2097V18.4802C18.4996 18.7736 18.4226 19.5067 18.1878 20.1176C17.8812 20.9174 17.4082 21.4422 17.3212 21.5495C17.3212 21.5495 16.7456 22.2589 15.7309 22.7366C14.8163 23.1676 14.013 23.1567 13.7726 23.1676C13.7726 23.1676 12.3843 23.225 11.1345 22.3777L11.1283 22.373C10.9963 22.2397 10.8721 22.099 10.7563 21.9515C10.3574 21.4441 10.113 20.8442 10.0515 20.673C10.0514 20.6722 10.0514 20.6715 10.0515 20.6708C9.95269 20.3733 9.74501 19.6589 9.77339 18.9669C9.8236 17.7461 10.2352 16.9968 10.344 16.8091C10.6323 16.2972 11.0071 15.8392 11.452 15.4554C11.8445 15.1243 12.2894 14.8609 12.7685 14.6759C13.2864 14.4587 13.841 14.3423 14.4025 14.3329V16.3566C14.4025 16.3566 13.3753 16.0167 12.5533 16.6186C11.9786 17.0639 11.6737 17.4982 11.5839 18.2741C11.5801 18.845 11.7201 19.653 12.4882 20.1918C12.5778 20.2511 12.6657 20.3036 12.752 20.3496C12.8862 20.5316 13.0495 20.6901 13.2353 20.8189C13.9856 21.3144 14.6142 21.349 15.4181 21.0272C15.9541 20.812 16.3576 20.3271 16.5447 19.7899C16.6623 19.4543 16.6607 19.1166 16.6607 18.7674V8.83252H18.5317C18.6091 9.29122 18.823 9.94419 19.3886 10.5909C19.6155 10.8351 19.8711 11.051 20.1498 11.2339C20.2321 11.3228 20.6531 11.7621 21.1935 12.0319C21.4729 12.1713 21.7674 12.2781 22.0713 12.3503Z" fill="white"/>
<path d="M12.7684 14.6758C12.2894 14.8608 11.8444 15.1243 11.4519 15.4554C11.0069 15.84 10.6322 16.2989 10.3443 16.8118C10.2355 16.9989 9.82385 17.7489 9.77365 18.9697C9.74527 19.6616 9.95295 20.376 10.0518 20.6735C10.0517 20.6742 10.0517 20.675 10.0518 20.6757C10.1142 20.8453 10.3577 21.4453 10.7565 21.9542C10.8724 22.1017 10.9966 22.2425 11.1285 22.3758C10.7058 22.0834 10.3287 21.7299 10.0097 21.3268C9.6143 20.8238 9.37045 20.2301 9.30684 20.0548C9.30677 20.0536 9.30677 20.0524 9.30684 20.0511V20.0489C9.20768 19.7517 8.99938 19.037 9.02838 18.3442C9.07858 17.1233 9.4902 16.374 9.59902 16.1863C9.8868 15.6734 10.2616 15.2144 10.7066 14.8298C11.0991 14.4986 11.544 14.2351 12.0232 14.0503C12.322 13.9263 12.6334 13.8348 12.9518 13.7774C13.4317 13.6937 13.9218 13.6864 14.404 13.7559V14.3328C13.8419 14.342 13.2868 14.4584 12.7684 14.6758Z" fill="#69C9D0"/>
<path d="M18.5332 8.8326H16.6622V18.7678C16.6622 19.117 16.6622 19.4538 16.5462 19.7903C16.3572 20.3272 15.9553 20.8121 15.4196 21.0273C14.6154 21.3503 13.9867 21.3145 13.2368 20.819C13.0506 20.6908 12.8869 20.5328 12.7522 20.3512C13.3911 20.6921 13.963 20.6861 14.6715 20.4017C15.2069 20.1866 15.6095 19.7017 15.7978 19.1644C15.9157 18.8289 15.9141 18.4912 15.9141 18.1422V8.2052H18.4976C18.4976 8.2052 18.4686 8.45217 18.5332 8.8326ZM22.0712 11.7975V12.3503C21.7679 12.2781 21.4739 12.1713 21.195 12.032C20.6546 11.7622 20.2336 11.3229 20.1513 11.234C20.2468 11.2967 20.3459 11.3538 20.4481 11.4049C21.1051 11.7329 21.7522 11.8308 22.0712 11.7975Z" fill="#69C9D0"/>
</svg>
