<svg width="24" height="24" viewBox="0 0 24 24" fill="none" xmlns="http://www.w3.org/2000/svg">
<path fill-rule="evenodd" clip-rule="evenodd" d="M10.507 2.252L10.557 2.25H13.103C13.3019 2.25 13.4927 2.32902 13.6333 2.46967C13.774 2.61032 13.853 2.80109 13.853 3V6.714H16.59C16.7889 6.714 16.9797 6.79302 17.1203 6.93367C17.261 7.07432 17.34 7.26509 17.34 7.464V10.079C17.34 10.2779 17.261 10.4687 17.1203 10.6093C16.9797 10.75 16.7889 10.829 16.59 10.829H13.853V15.511C13.8524 15.5485 13.8498 15.5858 13.845 15.623C13.8275 15.7403 13.8371 15.8599 13.8731 15.9729C13.9091 16.0859 13.9705 16.1891 14.0525 16.2746C14.1346 16.3602 14.2352 16.4258 14.3466 16.4664C14.4579 16.507 14.5771 16.5216 14.695 16.509L14.752 16.505C15.1472 16.4916 15.5367 16.4072 15.902 16.256C15.9975 16.2164 16.1001 16.197 16.2035 16.199C16.3068 16.201 16.4086 16.2243 16.5025 16.2675C16.5964 16.3107 16.6804 16.3728 16.7491 16.45C16.8179 16.5272 16.8699 16.6178 16.902 16.716L17.712 19.183C17.7478 19.2919 17.7581 19.4076 17.7421 19.5212C17.7262 19.6347 17.6844 19.7431 17.62 19.838C17.45 20.09 17.189 20.279 16.957 20.416C16.708 20.564 16.414 20.696 16.101 20.807C15.4199 21.0489 14.7037 21.1773 13.981 21.187C11.884 21.219 10.366 20.461 9.379 19.362C8.50003 18.3752 8.00805 17.1035 7.994 15.782V10.829H7C6.80109 10.829 6.61032 10.75 6.46967 10.6093C6.32902 10.4687 6.25 10.2779 6.25 10.079V7.83C6.24992 7.67756 6.2963 7.52873 6.38294 7.40331C6.46959 7.2779 6.5924 7.18186 6.735 7.128C7.5634 6.81412 8.283 6.26672 8.80659 5.55215C9.33019 4.83757 9.63532 3.98648 9.685 3.102C9.69198 2.88354 9.78002 2.67549 9.93196 2.51837C10.0839 2.36125 10.2889 2.26629 10.507 2.252ZM11.125 3.75C10.9777 4.72968 10.5932 5.65853 10.005 6.45571C9.41674 7.25289 8.64264 7.89425 7.75 8.324V9.329H8.744C8.94291 9.329 9.13368 9.40802 9.27433 9.54867C9.41498 9.68932 9.494 9.88009 9.494 10.079V15.781C9.494 16.586 9.796 17.581 10.495 18.36C11.175 19.117 12.27 19.714 13.963 19.687H13.975C14.529 19.6779 15.0779 19.5786 15.6 19.393C15.809 19.319 15.988 19.239 16.127 19.163L15.707 17.887C15.418 17.9516 15.1239 17.9904 14.828 18.003C14.489 18.0351 14.1472 17.9908 13.8276 17.8734C13.5081 17.7559 13.2189 17.5683 12.9814 17.3243C12.744 17.0803 12.5642 16.7861 12.4555 16.4635C12.3467 16.1409 12.3117 15.798 12.353 15.46V10.08C12.353 9.88109 12.432 9.69032 12.5727 9.54967C12.7133 9.40902 12.9041 9.33 13.103 9.33H15.84V8.213H13.103C12.9041 8.213 12.7133 8.13398 12.5727 7.99333C12.432 7.85268 12.353 7.66191 12.353 7.463V3.75H11.125Z" fill="white"/>
</svg>
