<svg width="32" height="32" viewBox="0 0 32 32" fill="none" xmlns="http://www.w3.org/2000/svg">
<circle cx="16" cy="16" r="16" fill="#F52929"/>
<path fill-rule="evenodd" clip-rule="evenodd" d="M22.6462 11.118C23.0791 11.614 23.2319 12.7367 23.2319 12.7367C23.2319 12.7367 23.3847 14.0681 23.3847 15.3996V16.6266C23.3847 17.932 23.2319 19.2635 23.2319 19.2635C23.2319 19.2635 23.0791 20.3861 22.6462 20.8821C22.1135 21.478 21.5116 21.5308 21.213 21.557C21.1976 21.5583 21.1831 21.5596 21.1693 21.5609C19.1067 21.7436 16.0001 21.7437 16.0001 21.7437C16.0001 21.7437 12.155 21.7175 10.9837 21.5871C10.9214 21.5723 10.8448 21.5613 10.7576 21.5487C10.3812 21.4945 9.80883 21.4121 9.35394 20.8821C8.92107 20.3861 8.76828 19.2635 8.76828 19.2635C8.76828 19.2635 8.61548 17.9581 8.61548 16.6267V15.3996C8.61548 14.0681 8.76828 12.7367 8.76828 12.7367C8.76828 12.7367 8.89557 11.6141 9.35394 11.118C9.88671 10.5221 10.4886 10.4693 10.7872 10.4431C10.8026 10.4418 10.8171 10.4405 10.8309 10.4392C12.8934 10.2826 16.0001 10.2565 16.0001 10.2565C16.0001 10.2565 19.1067 10.2826 21.1693 10.4392C21.1906 10.4412 21.2139 10.443 21.2391 10.445C21.5457 10.4691 22.1286 10.5149 22.6462 11.118ZM14.2176 19.0285V13.3632L19.0558 16.2611L14.2176 19.0285Z" fill="white"/>
</svg>
